<svg t="1734004816327" class="icon" viewBox="0 0 1024 1024" version="1.1" xmlns="http://www.w3.org/2000/svg" p-id="2112" width="200" height="200"><path d="M802.7 597.5c13.7 4.6 25.1 11.4 34.2 20.5l51.3 47.9 27.4 27.4 23.9 27.4c6.8 9.1 12 19.4 15.4 30.8 3.4 11.4 5.1 22.8 5.1 34.2 0 27.4-9.1 50.2-27.4 68.4L884.7 902c-13.7 11.4-27.9 21.7-42.7 30.8-14.8 9.1-31.9 16-51.3 20.5s-40.5 6.8-63.3 6.8c-36.5 0-73.5-5.7-111.1-17.1-37.6-11.4-75.8-26.8-114.6-46.2s-76.4-43.3-112.9-71.8-70.7-58.7-102.6-90.6-61.6-66.1-88.9-102.6-50.7-73.5-70.1-111.1c-19.4-37.6-34.8-75.8-46.2-114.6-11.4-38.8-17.1-75.2-17.1-109.4s1.7-43.9 5.1-63.3c3.4-19.4 10.3-36.5 20.5-51.3 10.3-14.8 21.1-29.1 32.5-42.7l47.9-47.9c18.2-18.2 41-27.4 68.4-27.4s34.8 4.6 49.6 13.7c14.8 9.1 29.1 19.9 42.7 32.5 13.7 12.5 26.8 25.6 39.3 39.3s24.5 26.2 35.9 37.6c18.2 20.5 27.4 44.5 27.4 71.8s-1.7 25.6-5.1 35.9-8.5 19.4-15.4 27.4-13.7 15.4-20.5 22.2L368.3 365l-13.7 17.1c-6.8 6.8-9.7 13.1-8.5 18.8 1.1 5.7 5.1 13.1 12 22.2 6.8 9.1 14.8 19.4 23.9 30.8 25.1 27.4 50.2 53.6 75.2 78.7L597.4 666c4.6 6.8 11.4 10.8 20.5 12s17.1-1.7 23.9-8.5l17.1-13.7 20.5-20.5c6.8-9.1 14.2-16.5 22.2-22.2s17.7-11.4 29.1-17.1c11.4-5.7 23.4-8 35.9-6.8s24.5 4 35.9 8.5z m-24 294.1c13.7-4.6 26.2-10.8 37.6-18.8 11.4-8 22.8-16.5 34.2-25.6l34.2-37.6c9.1-6.8 13.7-14.8 13.7-23.9s-3.4-10.3-10.3-17.1l-20.5-27.4c-6.8-11.4-16-21.7-27.4-30.8L809.4 683l-23.9-20.5c-9.1-6.8-16.5-10.3-22.2-10.3s-12 2.3-18.8 6.8a63.24 63.24 0 0 0-17.1 17.1l-20.5 20.5c-13.7 16-30.8 28.5-51.3 37.6-11.4 4.6-22.8 6.8-34.2 6.8-27.4 0-51.3-10.3-71.8-30.8l-236-236c-11.4-11.4-19.4-22.8-23.9-34.2-4.6-11.4-6.8-23.4-6.8-35.9s2.3-24.5 6.8-35.9 9.7-21.1 15.4-29.1c5.7-8 13.1-15.4 22.2-22.2l37.6-37.6c4.6-6.8 6.8-13.1 6.8-18.8s-3.4-13.1-10.3-22.2l-20.5-23.9c-16-20.5-35.3-39.9-58.1-58.1l-23.9-20.5c-9.1-6.8-16-10.3-20.5-10.3-9.1 0-17.1 4.6-23.9 13.7l-37.6 34.2c-11.4 11.4-20.5 22.2-27.4 32.5s-12.5 23.4-17.1 39.3c-4.6 16-5.7 31.9-3.4 47.9 0 34.2 5.1 68.4 15.4 102.6 10.3 34.2 24.5 68.4 42.7 102.6 18.2 34.2 39.9 67.3 65 99.2 25.1 31.9 52.4 62.7 82.1 92.3 59.3 59.3 124.3 109.4 194.9 150.5 31.9 16 65 29.1 99.2 39.3 34.2 10.3 67.3 15.4 99.2 15.4 18.2 2.3 35.3 1.1 51.3-3.4zM915.5 64L618 361.5v-212h-65V471h321.5v-65h-212L960 108.5 915.5 64z" p-id="2113"></path></svg>